<svg width="1071" height="29" viewBox="0 0 1071 29" fill="none" xmlns="http://www.w3.org/2000/svg">
<path d="M59.2079 16.8475H68.2703L63.4784 9.13801L54.6836 23.0771H50.6809L61.3784 6.33328C61.8435 5.65677 62.6186 5.24805 63.4784 5.24805C64.3099 5.24805 65.0851 5.64268 65.5361 6.3051L76.2758 23.0771H72.2731L70.3845 19.9623H61.2092L59.2079 16.8475ZM100.785 19.9623V5.41718H97.3888V21.3858C97.3888 21.8227 97.5579 22.2455 97.8821 22.5697C98.2062 22.8938 98.6431 23.0771 99.1223 23.0771H114.612L116.613 19.9623H100.785ZM44.5923 17.3549C47.8904 17.3549 50.5682 14.6911 50.5682 11.3931C50.5682 8.09505 47.8904 5.41718 44.5923 5.41718H29.7329V23.0771H33.1282V8.53197H44.3668C45.9454 8.53197 47.2138 9.81452 47.2138 11.3931C47.2138 12.9716 45.9454 14.2542 44.3668 14.2542L34.7913 14.2401L44.9305 23.0771H49.8635L43.042 17.3549H44.5923ZM8.83143 23.0771C3.95624 23.0771 0 19.1307 0 14.2542C0 9.37761 3.95624 5.41718 8.83143 5.41718H19.0961C23.9726 5.41718 27.926 9.37761 27.926 14.2542C27.926 19.1307 23.9726 23.0771 19.0961 23.0771H8.83143ZM18.8678 19.9623C22.0263 19.9623 24.5844 17.4112 24.5844 14.2542C24.5844 11.0971 22.0263 8.53197 18.8678 8.53197H9.0583C5.90122 8.53197 3.34168 11.0971 3.34168 14.2542C3.34168 17.4112 5.90122 19.9623 9.0583 19.9623H18.8678ZM83.3651 23.0771C78.4885 23.0771 74.5282 19.1307 74.5282 14.2542C74.5282 9.37761 78.4885 5.41718 83.3651 5.41718H95.5565L93.5692 8.53197H83.5906C80.4335 8.53197 77.8685 11.0971 77.8685 14.2542C77.8685 17.4112 80.4335 19.9623 83.5906 19.9623H95.8383L93.837 23.0771H83.3651ZM124.9 19.9623C122.293 19.9623 120.08 18.2146 119.404 15.8045H133.921L135.922 12.6897H119.404C120.08 10.2937 122.293 8.53197 124.9 8.53197H134.865L136.88 5.41718H124.675C119.798 5.41718 115.838 9.37761 115.838 14.2542C115.838 19.1307 119.798 23.0771 124.675 23.0771H135.147L137.148 19.9623H124.9Z" fill="#EA1B22"/>
<path d="M322.682 9.84866C323.757 10.7185 322.619 12.0945 321.67 11.3987C320.499 10.6553 317.842 10.3074 317.51 11.9522C317.083 14.5461 323.963 13.0594 323.852 17.2665C323.742 21.2839 317.921 21.3788 315.739 19.5757C315.217 19.1487 315.232 18.4528 315.517 18.0257C315.928 17.6145 316.387 17.4722 316.925 17.915C318.222 18.8007 321.559 19.465 321.796 17.2191C321.591 14.8782 315.011 16.2859 315.501 11.7941C315.865 8.72571 320.499 8.17209 322.682 9.84866ZM312.306 10.4655V16.191C312.306 22.1063 302.769 22.1063 302.769 16.191V10.4655C302.769 9.0421 304.841 8.97877 304.841 10.4655V16.191C304.841 19.3068 310.234 19.4967 310.234 16.191V10.4655C310.234 9.0578 312.306 8.94711 312.306 10.4655ZM246.998 9.02627C249.766 9.16851 252.66 11.0823 252.66 14.8309C252.66 18.5793 249.766 20.5247 246.998 20.5247C244.072 20.6513 241.035 18.7058 241.035 14.8309C241.035 10.9399 244.072 9.02627 246.998 9.02627ZM260.933 9.42156C264.95 9.42156 265.773 14.7992 262.42 16.1435L264.523 18.7058C265.346 19.9237 263.701 21.0941 262.752 19.8921L260.363 16.4757H257.88V19.3385C257.88 20.7145 255.777 20.762 255.777 19.3701V10.3864C255.777 9.83282 256.204 9.42156 256.726 9.42156H260.933ZM228.16 9.27933C228.619 9.27933 228.888 9.54822 229.157 9.84865L232.636 14.5461L236.243 9.67463C236.764 9.02628 238.046 9.27933 238.046 10.3706V19.2753C238.046 19.9711 237.603 20.3665 237.097 20.3665C236.527 20.3665 236.084 19.9711 236.084 19.2753V13.4232L233.459 16.7446C232.889 17.4405 232.178 17.4405 231.656 16.7446L229.299 13.4232V19.2753C229.299 19.9711 228.73 20.3665 228.16 20.3665C227.654 20.3665 227.211 19.9711 227.211 19.2753V10.3706C227.211 9.54823 227.907 9.27933 228.16 9.27933ZM272.4 9.27933C274.456 9.27933 276.307 10.6553 276.307 13.2966C276.307 15.7956 274.456 17.1874 272.4 17.1874H269.759V19.2753C269.759 19.9711 269.316 20.3665 268.746 20.3665C268.224 20.3665 267.671 19.9711 267.671 19.2753V10.3706C267.671 9.84866 268.082 9.27933 268.746 9.27933H272.4ZM287.505 9.42156C288.059 9.42156 288.486 9.83282 288.486 10.4023V19.386C288.486 19.9394 288.059 20.3665 287.505 20.3665C286.936 20.3665 286.43 19.9394 286.43 19.386V15.9221H281.274V19.386C281.274 19.9394 280.862 20.3665 280.309 20.3665C279.597 20.3665 279.186 19.9394 279.186 19.386V10.4023C279.186 9.83282 279.597 9.42156 280.309 9.42156C280.862 9.42156 281.274 9.83282 281.274 10.4023V13.8503H286.43V10.4023C286.43 9.83282 286.936 9.42156 287.505 9.42156ZM298.514 9.42156C299.969 9.42156 299.937 11.4777 298.514 11.4777H293.959V13.8503H297.944C299.352 13.8503 299.352 15.9221 297.944 15.9221H293.959V18.2945H298.783C300.222 18.2945 300.333 20.3665 298.783 20.3665H292.836C292.282 20.3665 291.855 19.9394 291.855 19.386V10.4023C291.855 9.83282 292.282 9.42156 292.836 9.42156H298.514ZM246.824 11.0823C245.053 11.0823 243.123 12.3319 243.123 14.8308C243.123 17.314 245.053 18.5793 246.824 18.5793C248.643 18.5793 250.589 17.314 250.589 14.8308C250.589 12.3319 248.643 11.0823 246.824 11.0823ZM272.4 11.2722H269.759V15.2104H272.4C273.46 15.2104 274.298 14.2772 274.298 13.2966C274.298 12.1895 273.46 11.2722 272.4 11.2722ZM260.933 11.3354H257.88V14.6568H260.933C262.989 14.6568 263.115 11.3354 260.933 11.3354Z" fill="#3DB5E6"/>
<path d="M214.662 17.7229C213.12 23.918 207.478 28.3255 200.833 28.3255C194.159 28.3255 188.565 23.6571 187.086 17.4365C188.865 17.4365 190.527 17.4446 191.299 17.4446C191.663 17.4446 191.733 17.4509 191.755 17.4494C192.335 17.4208 193.063 17.2292 193.548 16.0513L195.394 11.2227L199.493 21.0928C199.862 21.8796 200.477 21.8239 200.844 21.8239H200.879C201.595 21.8239 201.906 21.5729 202.178 21.0539L206.809 11.2967L208.388 15.694L208.485 15.907C208.819 16.6396 209.059 17.3632 209.885 17.4578C210.056 17.4773 212.034 17.4427 214.702 17.4427C214.702 17.4427 214.702 17.4598 214.662 17.7229Z" fill="#3DB5E6"/>
<path d="M215.117 14.0751C215.117 14.1489 215.117 14.3342 215.115 14.3342H215.112H210.855L208.371 7.39596C208.15 6.87996 207.818 6.1064 206.849 6.1064C206.256 6.1064 205.72 6.59592 205.417 7.40377L200.914 17.8332L196.58 7.46703C196.156 6.54636 195.862 6.11336 195.014 6.11336C194.438 6.11336 194.015 6.3256 193.555 7.41627L190.982 14.4373L186.708 14.4328C186.705 14.326 186.704 14.2192 186.704 14.1124C186.704 6.30766 193.031 0 200.836 0C208.64 0 215.117 6.27043 215.117 14.0751Z" fill="#D8292F"/>
<path d="M509.387 9.84866C510.463 10.7185 509.324 12.0945 508.375 11.3987C507.205 10.6553 504.548 10.3074 504.215 11.9522C503.788 14.5461 510.669 13.0594 510.558 17.2665C510.447 21.2839 504.627 21.3788 502.444 19.5757C501.922 19.1487 501.938 18.4528 502.223 18.0257C502.634 17.6145 503.093 17.4722 503.63 17.915C504.927 18.8007 508.264 19.465 508.502 17.2191C508.296 14.8782 501.717 16.2859 502.207 11.7941C502.571 8.72571 507.205 8.17209 509.387 9.84866ZM499.011 10.4655V16.191C499.011 22.1063 489.474 22.1063 489.474 16.191V10.4655C489.474 9.0421 491.546 8.97877 491.546 10.4655V16.191C491.546 19.3068 496.939 19.4967 496.939 16.191V10.4655C496.939 9.0578 499.011 8.94711 499.011 10.4655ZM433.704 9.02627C436.472 9.16851 439.366 11.0823 439.366 14.8309C439.366 18.5793 436.472 20.5247 433.704 20.5247C430.778 20.6513 427.741 18.7058 427.741 14.8309C427.741 10.9399 430.778 9.02627 433.704 9.02627ZM447.638 9.42156C451.656 9.42156 452.478 14.7992 449.125 16.1435L451.229 18.7058C452.051 19.9237 450.406 21.0941 449.457 19.8921L447.069 16.4757H444.586V19.3385C444.586 20.7145 442.482 20.762 442.482 19.3701V10.3864C442.482 9.83282 442.909 9.42156 443.431 9.42156H447.638ZM414.866 9.27933C415.325 9.27933 415.593 9.54822 415.862 9.84865L419.342 14.5461L422.948 9.67463C423.47 9.02628 424.751 9.27933 424.751 10.3706V19.2753C424.751 19.9711 424.308 20.3665 423.802 20.3665C423.233 20.3665 422.79 19.9711 422.79 19.2753V13.4232L420.164 16.7446C419.595 17.4405 418.883 17.4405 418.361 16.7446L416.005 13.4232V19.2753C416.005 19.9711 415.435 20.3665 414.866 20.3665C414.36 20.3665 413.917 19.9711 413.917 19.2753V10.3706C413.917 9.54823 414.613 9.27933 414.866 9.27933ZM459.106 9.27933C461.162 9.27933 463.012 10.6553 463.012 13.2966C463.012 15.7956 461.162 17.1874 459.106 17.1874H456.464V19.2753C456.464 19.9711 456.021 20.3665 455.452 20.3665C454.93 20.3665 454.376 19.9711 454.376 19.2753V10.3706C454.376 9.84866 454.788 9.27933 455.452 9.27933H459.106ZM474.211 9.42156C474.764 9.42156 475.191 9.83282 475.191 10.4023V19.386C475.191 19.9394 474.764 20.3665 474.211 20.3665C473.641 20.3665 473.135 19.9394 473.135 19.386V15.9221H467.979V19.386C467.979 19.9394 467.568 20.3665 467.014 20.3665C466.302 20.3665 465.891 19.9394 465.891 19.386V10.4023C465.891 9.83282 466.302 9.42156 467.014 9.42156C467.568 9.42156 467.979 9.83282 467.979 10.4023V13.8503H473.135V10.4023C473.135 9.83282 473.641 9.42156 474.211 9.42156ZM485.219 9.42156C486.674 9.42156 486.643 11.4777 485.219 11.4777H480.664V13.8503H484.65C486.057 13.8503 486.057 15.9221 484.65 15.9221H480.664V18.2945H485.488C486.927 18.2945 487.038 20.3665 485.488 20.3665H479.541C478.988 20.3665 478.56 19.9394 478.56 19.386V10.4023C478.56 9.83282 478.988 9.42156 479.541 9.42156H485.219ZM433.53 11.0823C431.758 11.0823 429.829 12.3319 429.829 14.8308C429.829 17.314 431.758 18.5793 433.53 18.5793C435.349 18.5793 437.294 17.314 437.294 14.8308C437.294 12.3319 435.349 11.0823 433.53 11.0823ZM459.106 11.2722H456.464V15.2104H459.106C460.165 15.2104 461.003 14.2772 461.003 13.2966C461.003 12.1895 460.165 11.2722 459.106 11.2722ZM447.638 11.3354H444.586V14.6568H447.638C449.694 14.6568 449.821 11.3354 447.638 11.3354Z" fill="#3DB5E6"/>
<path d="M401.368 17.7229C399.826 23.918 394.184 28.3255 387.539 28.3255C380.864 28.3255 375.271 23.6571 373.792 17.4365C375.57 17.4365 377.232 17.4446 378.004 17.4446C378.368 17.4446 378.439 17.4509 378.46 17.4494C379.041 17.4208 379.769 17.2292 380.253 16.0513L382.099 11.2227L386.199 21.0928C386.567 21.8796 387.182 21.8239 387.549 21.8239H387.584C388.3 21.8239 388.612 21.5729 388.884 21.0539L393.514 11.2967L395.094 15.694L395.19 15.907C395.524 16.6396 395.764 17.3632 396.591 17.4578C396.761 17.4773 398.74 17.4427 401.407 17.4427C401.407 17.4427 401.407 17.4598 401.368 17.7229Z" fill="#3DB5E6"/>
<path d="M401.822 14.0751C401.822 14.1489 401.822 14.3342 401.821 14.3342H401.818H397.56L395.077 7.39596C394.856 6.87996 394.523 6.1064 393.554 6.1064C392.962 6.1064 392.426 6.59592 392.122 7.40377L387.619 17.8332L383.285 7.46703C382.861 6.54636 382.568 6.11336 381.719 6.11336C381.143 6.11336 380.72 6.3256 380.26 7.41627L377.688 14.4373L373.414 14.4328C373.411 14.326 373.409 14.2192 373.409 14.1124C373.409 6.30766 379.737 0 387.541 0C395.346 0 401.822 6.27043 401.822 14.0751Z" fill="#D8292F"/>
<path d="M690.327 12.8859V15.7453H692.337V18.5824C692.342 18.7997 692.333 19.0316 692.303 19.2312L692.286 19.3281C692.282 19.3497 692.279 19.3719 692.274 19.3947L692.257 19.4645C692.254 19.4763 692.251 19.4883 692.248 19.5004L692.224 19.574C692.043 20.0964 691.499 20.7584 690.277 20.7584C688.975 20.7584 688.452 19.9984 688.309 19.4645L688.292 19.3947L688.279 19.3281C688.243 19.1093 688.228 18.8359 688.228 18.5824V9.62156C688.228 9.33981 688.245 9.0344 688.296 8.78558L688.33 8.63438C688.333 8.62391 688.336 8.61327 688.338 8.60247L688.357 8.53588C688.361 8.5245 688.365 8.51298 688.368 8.50135L688.393 8.43016C688.579 7.93507 689.071 7.27567 690.266 7.27567C691.189 7.27567 691.686 7.6517 691.951 8.04033L691.998 8.11326C692.013 8.13756 692.027 8.16182 692.04 8.18595L692.078 8.25788L692.11 8.3285L692.139 8.39729L692.163 8.46371L692.184 8.52723L692.201 8.58732L692.215 8.64345L692.226 8.69509C692.231 8.72077 692.236 8.74803 692.24 8.77637L692.252 8.86414C692.254 8.87914 692.255 8.89429 692.257 8.90952L692.269 9.04716L692.277 9.17916L692.284 9.35914L692.286 9.45137V10.5395H697.223L697.224 9.86213L697.228 9.61988L697.227 9.4321L697.222 9.21346L697.218 9.09575L697.21 8.91227L697.197 8.72432L697.186 8.59866C696.852 5.28851 694.364 4.01496 691.337 3.79335L691.134 3.78012L690.93 3.76995C690.827 3.76562 690.725 3.7624 690.621 3.76027L690.414 3.75744C690.379 3.75709 690.344 3.75709 690.31 3.75709L690.101 3.75851C690.067 3.75899 690.032 3.75958 689.998 3.7603L689.792 3.76606L689.587 3.77481L689.384 3.78659L689.182 3.80148C689.115 3.80696 689.049 3.81298 688.982 3.81953L688.785 3.84082C688.752 3.84464 688.719 3.84859 688.686 3.85269L688.491 3.87894C688.039 3.94411 687.604 4.03695 687.191 4.16108L687.016 4.2162C685.103 4.84387 683.713 6.17837 683.427 8.59866L683.398 8.86733L683.377 9.07534L683.359 9.29343L683.343 9.51039C683.334 9.65218 683.328 9.78577 683.328 9.89623L683.329 18.245L683.33 18.3487L683.335 18.5062L683.339 18.6166L683.346 18.7345L683.355 18.8627L683.366 19.004L683.388 19.2464L683.406 19.4323C683.684 22.5083 686.015 23.8767 688.868 24.1995L689.068 24.2204C689.402 24.2523 689.743 24.2703 690.088 24.2754L690.296 24.2769L690.505 24.2754C690.852 24.2703 691.194 24.2523 691.53 24.2204L691.73 24.1995C694.593 23.8767 696.909 22.5083 697.191 19.4323L697.214 19.1611L697.23 18.9316L697.246 18.6744L697.255 18.4529L697.263 18.1393V12.8859H690.327ZM656.281 4.28453H651.322V18.7891C651.33 19.0419 651.322 19.3259 651.278 19.5341L651.264 19.5972L651.246 19.6644C651.239 19.6874 651.232 19.711 651.224 19.735L651.198 19.8086C651.011 20.3073 650.534 20.958 649.394 20.958C648.325 20.958 647.837 20.3707 647.633 19.8844L647.603 19.8086C647.598 19.7961 647.594 19.7838 647.589 19.7715L647.566 19.6993L647.547 19.6303C647.544 19.6191 647.541 19.608 647.538 19.5972L647.525 19.5341C647.475 19.3259 647.469 19.0419 647.475 18.7891V4.28453H642.518V18.339L642.517 18.452L642.519 18.6495L642.526 18.9402L642.539 19.2935L642.549 19.4714L642.555 19.5658L642.562 19.6353C642.805 22.2355 644.33 23.589 646.484 24.1553L646.668 24.2013C647.069 24.297 647.49 24.3667 647.928 24.4132L648.131 24.4331L648.336 24.4497L648.544 24.4632C648.648 24.4691 648.753 24.4739 648.859 24.4776L649.072 24.4834L649.286 24.4863C649.322 24.4867 649.358 24.4867 649.394 24.4867L649.61 24.4852C649.646 24.4847 649.682 24.4841 649.717 24.4834L649.93 24.4776C650.036 24.4739 650.142 24.4691 650.246 24.4632L650.454 24.4497L650.66 24.4331L650.863 24.4132C653.764 24.1052 655.939 22.7849 656.239 19.6353L656.243 19.604L656.251 19.5214L656.263 19.3569L656.273 19.1577L656.279 19.0138L656.285 18.793L656.287 18.6495L656.287 18.5147L656.283 18.3932C656.283 18.3743 656.282 18.3562 656.281 18.339V4.28453ZM610.72 4.28453L608.246 19.6106L605.774 4.28453H597.776L597.352 23.891H602.252L602.384 5.7407L605.756 23.891H610.728L614.102 5.7407L614.235 23.891H619.148L618.709 4.28453H610.72ZM581.105 4.28453L577.473 23.891H582.77L585.507 5.7407L588.178 23.891H593.437L589.82 4.28453H581.105ZM673.61 20.0701L668.993 4.28453H661.717V23.6866H666.53L666.251 7.39601L671.209 23.6866H678.187V4.28453H673.343L673.61 20.0701ZM629.09 9.38717C629.003 8.99997 629.028 8.58859 629.073 8.37359C629.086 8.31653 629.101 8.25901 629.118 8.20156L629.147 8.11554C629.343 7.572 629.8 7.06143 630.85 7.06143C631.982 7.06143 632.646 7.76736 632.646 8.82676V10.0256H637.48V8.65909C637.48 5.57519 635.462 4.38889 633.305 3.9731L633.127 3.94064L632.949 3.91151L632.771 3.88557L632.593 3.86268L632.416 3.84271L632.238 3.82551C632.18 3.82023 632.121 3.81538 632.062 3.81095L631.887 3.79888L631.712 3.78918L631.54 3.78169L631.369 3.77628L631.2 3.77281L630.95 3.77094L630.84 3.77133L630.622 3.77445C630.585 3.77523 630.549 3.77614 630.513 3.77719L630.297 3.78509C630.225 3.78826 630.154 3.79197 630.083 3.79623L629.872 3.81068C626.923 4.03625 624.621 5.24755 624.161 8.0881C624.025 8.95314 623.991 9.721 624.208 10.7009C624.549 12.311 625.89 13.4568 627.43 14.4178L627.668 14.5642C627.708 14.5884 627.748 14.6125 627.789 14.6364L628.03 14.7789L628.274 14.9191L628.518 15.0571L628.884 15.2606L629.847 15.7883L630.081 15.918L630.311 16.0473L630.536 16.1764L630.756 16.3055C631.806 16.93 632.647 17.5634 632.949 18.3206C633.117 18.7704 633.08 19.3375 632.999 19.6993L632.985 19.7576C632.965 19.8446 632.94 19.9316 632.908 20.0172L632.875 20.1022C632.652 20.6225 632.165 21.066 631.095 21.066C629.875 21.066 629.141 20.3646 629.141 19.3075L629.14 17.4258H623.937V18.9215C623.937 22.4321 626.164 23.957 628.953 24.4098L629.161 24.4414C629.3 24.4611 629.441 24.4784 629.582 24.4931L629.795 24.5134C630.044 24.535 630.296 24.5493 630.55 24.5568L630.769 24.5616C630.805 24.5621 630.842 24.5625 630.878 24.5628L630.988 24.5632C631.061 24.5632 631.133 24.5627 631.206 24.5616L631.422 24.5569C631.458 24.5558 631.494 24.5547 631.53 24.5533L631.743 24.5438C631.814 24.54 631.885 24.5358 631.955 24.5309L632.165 24.5148C632.304 24.5029 632.441 24.4888 632.578 24.4723L632.781 24.4459L632.981 24.416C633.048 24.4054 633.114 24.3943 633.179 24.3825L633.375 24.3454C635.736 23.8723 637.493 22.5895 637.846 20.1229C637.894 19.755 637.924 19.4153 637.94 19.1047L637.949 18.902C637.95 18.869 637.951 18.8363 637.952 18.8039L637.955 18.6143V18.4335L637.952 18.2616L637.946 18.0986L637.939 17.9446C637.937 17.9197 637.936 17.8952 637.934 17.871L637.923 17.7307L637.911 17.5996L637.898 17.4777L637.876 17.3123L637.854 17.1681L637.825 17.0092L637.811 16.9442C637.471 15.2369 635.976 14.0309 634.315 13.0382L634.077 12.8978L633.837 12.7601L633.596 12.625L633.235 12.4266L632.755 12.1692L631.937 11.7341L631.6 11.5519C631.563 11.5318 631.527 11.5117 631.491 11.4916L631.275 11.3715L631.066 11.2519C630.035 10.6545 629.257 10.0679 629.09 9.38717ZM565.326 9.33909C565.237 8.96853 565.251 8.57872 565.297 8.35221L565.316 8.2674L565.337 8.18349C565.5 7.59474 565.947 6.98791 567.101 6.98791C568.247 6.98791 568.923 7.70064 568.923 8.7686V9.98208H573.813V8.60471C573.813 5.66182 571.982 4.4259 569.937 3.94244L569.758 3.90228C569.609 3.87035 569.459 3.84222 569.309 3.81754L569.129 3.78955L568.948 3.76473L568.768 3.74293L568.588 3.72402C568.529 3.71818 568.469 3.7128 568.409 3.70785L568.231 3.6943L568.055 3.68321L567.879 3.67445L567.705 3.66788L567.533 3.66336L567.279 3.65991H567.196C567.122 3.65991 567.049 3.66042 566.977 3.66146L566.759 3.66613C566.615 3.67029 566.472 3.67657 566.33 3.68504L566.119 3.69938C566.084 3.70204 566.049 3.70485 566.014 3.70779L565.806 3.72714C565.737 3.73415 565.668 3.74173 565.6 3.74988L565.397 3.77607C565.228 3.79934 565.063 3.82626 564.9 3.85696L564.705 3.89561L564.514 3.93793L564.325 3.98397C564.263 3.99994 564.201 4.01655 564.14 4.03378L563.958 4.08742C562.06 4.67083 560.692 5.89443 560.347 8.0176C560.204 8.89649 560.18 9.66965 560.386 10.6603C560.748 12.3723 562.227 13.5645 563.881 14.5663L564.125 14.7116C564.165 14.7356 564.206 14.7595 564.247 14.7833L564.493 14.9249L564.863 15.1334L565.356 15.4052L566.082 15.8034L566.435 15.9999L566.778 16.1957L567.001 16.3263C567.037 16.348 567.074 16.3698 567.11 16.3916L567.323 16.5226C568.231 17.0915 568.942 17.6774 569.217 18.3644C569.397 18.8111 569.354 19.378 569.27 19.7516L569.255 19.812C569.234 19.898 569.208 19.984 569.176 20.0687L569.142 20.1529C568.914 20.6824 568.424 21.1365 567.34 21.1365C566.115 21.1365 565.383 20.423 565.383 19.3513L565.376 17.4646H560.115V18.9638C560.115 23.1721 563.288 24.5553 566.801 24.6592L567.021 24.6641L567.242 24.6657L567.46 24.6641C567.569 24.6626 567.677 24.6598 567.785 24.6559L567.999 24.6465C568.105 24.6409 568.211 24.6342 568.316 24.6262L568.524 24.6086L568.731 24.5876C568.8 24.5801 568.868 24.5719 568.935 24.5632L569.137 24.5354C569.204 24.5256 569.271 24.5151 569.337 24.5041L569.534 24.4693C571.979 24.0114 573.801 22.7143 574.168 20.1773C574.219 19.8149 574.25 19.4796 574.268 19.1723L574.278 18.9716L574.284 18.7793C574.285 18.7166 574.286 18.6553 574.286 18.5954L574.286 18.42L574.282 18.2531L574.276 18.0949L574.268 17.9453L574.258 17.8044L574.247 17.6723L574.228 17.4908L574.207 17.3294L574.179 17.1459L574.148 16.9679C573.808 15.2807 572.358 14.0804 570.727 13.0932L570.487 12.9502C570.447 12.9266 570.406 12.9032 570.366 12.8798L570.123 12.741L569.88 12.6048L569.636 12.471L569.392 12.3393L568.317 11.7688L567.974 11.5846L567.751 11.4629L567.533 11.3419L567.321 11.2213C567.287 11.2012 567.252 11.1812 567.218 11.1611L567.017 11.0409C566.129 10.4999 565.477 9.95875 565.326 9.33909Z" fill="#1428A0"/>
<path d="M749.662 21.4114C748.633 21.4137 747.683 20.8622 747.174 19.968C746.673 19.0792 746.703 17.9865 747.252 17.1266L752.375 9.08234C752.909 8.20216 753.875 7.67725 754.904 7.70834C755.932 7.73298 756.867 8.30945 757.351 9.21691C757.829 10.1199 757.769 11.2063 757.197 12.0539L752.078 20.0982C751.55 20.9204 750.639 21.4158 749.662 21.4114Z" fill="#F62B54"/>
<path d="M758.449 21.4111C757.416 21.4111 756.465 20.8586 755.966 19.9709C755.466 19.0845 755.496 17.9945 756.044 17.1371L761.157 9.11129C761.683 8.21847 762.652 7.68124 763.688 7.70799C764.73 7.73078 765.674 8.31359 766.152 9.22524C766.626 10.1369 766.557 11.2298 765.967 12.0753L760.856 20.1011C760.33 20.9197 759.422 21.4136 758.449 21.4111Z" fill="#FFCC00"/>
<path d="M767.038 21.4803C768.494 21.4803 769.675 20.3243 769.675 18.8983C769.675 17.4724 768.494 16.3164 767.038 16.3164C765.581 16.3164 764.4 17.4724 764.4 18.8983C764.4 20.3243 765.581 21.4803 767.038 21.4803Z" fill="#00CA72"/>
<path d="M881.61 16.465C882.407 16.465 882.884 17.0315 882.884 17.9594V21.1394H883.966V17.8867C883.966 16.3087 883.222 15.3938 881.824 15.3938C881.277 15.3938 880.409 15.5435 879.891 16.5496C879.646 15.945 879.089 15.5239 878.44 15.4535C878.24 15.4168 878.036 15.4047 877.833 15.4176C877.388 15.4535 876.595 15.7302 876.299 16.3575V15.5142H875.216V21.1394H876.299V18.1038C876.299 16.923 877.072 16.465 877.846 16.465C878.571 16.465 879.047 17.0196 879.047 17.9475V21.1394H880.124V18.1038C880.124 17.1639 880.688 16.4541 881.61 16.465ZM871.24 20.1995C871.735 20.2104 872.213 20.0128 872.559 19.6547C872.906 19.2965 873.091 18.8092 873.072 18.3089C873.072 17.1758 872.239 16.465 871.24 16.465C870.241 16.465 869.408 17.1758 869.408 18.3089C869.389 18.8081 869.573 19.2944 869.918 19.6514C870.264 20.0096 870.739 20.2082 871.232 20.1995H871.24ZM871.24 21.2544C869.658 21.2544 868.337 20.0855 868.337 18.3024C868.337 16.5192 869.658 15.3873 871.24 15.3873C872.823 15.3873 874.154 16.5192 874.154 18.3024C874.154 20.0855 872.815 21.2598 871.233 21.2598L871.24 21.2544ZM862.764 18.3024L862.753 18.3089C862.753 16.5257 864.109 15.3938 865.702 15.3873C866.511 15.3716 867.29 15.6997 867.843 16.2902L867.023 16.9892C866.671 16.6435 866.195 16.4528 865.702 16.4595C864.704 16.4595 863.835 17.1704 863.835 18.3024C863.835 19.0675 864.29 19.7567 864.988 20.0497C865.686 20.3428 866.489 20.18 867.023 19.6395L867.855 20.3384C867.3 20.935 866.517 21.2679 865.702 21.2544C864.121 21.2544 862.764 20.0855 862.764 18.3024ZM859.299 20.0595C859.296 19.8609 859.373 19.6695 859.512 19.5274C859.651 19.3853 859.84 19.3042 860.039 19.302C860.238 19.3042 860.427 19.3853 860.566 19.5274C860.705 19.6695 860.781 19.8609 860.779 20.0595C860.759 20.4548 860.435 20.7663 860.039 20.7704C859.643 20.7663 859.319 20.4548 859.299 20.0595Z" fill="#333333"/>
<path d="M862.26 8.36278H858.406L855.705 15.3272L853.017 8.36278H849.163L853.849 19.3678L850.935 26.6437H854.76L862.26 8.36278ZM838.821 14.4839C838.821 16.2421 840.358 17.399 841.868 17.399C843.352 17.399 844.809 16.3224 844.809 14.4828C844.809 12.6432 843.352 11.5655 841.868 11.5655C840.358 11.5655 838.821 12.7235 838.821 14.4828V14.4839ZM844.809 20.6289V19.2365C844.028 20.4194 842.204 20.8666 841.269 20.8666C838.171 20.8666 835.073 18.4246 835.073 14.4828C835.073 10.5421 838.17 8.10014 841.269 8.10014C842.049 8.10014 843.873 8.36061 844.809 9.7281V8.36712H848.401V20.6311L844.809 20.63V20.6289ZM834.05 20.6289H830.458V19.1051C829.858 20.2339 828.403 20.8915 826.892 20.8915C823.767 20.8915 821.007 18.3964 821.007 14.5327C821.007 10.5963 823.767 8.09797 826.892 8.09797C828.4 8.09797 829.86 8.72744 830.458 9.85725V1.68164H834.05V20.6289ZM830.38 14.4557C830.38 12.6172 829.053 11.5395 827.569 11.5395C826.032 11.5395 824.756 12.6953 824.756 14.4557C824.756 16.2725 826.032 17.4229 827.568 17.4229C829.08 17.4251 830.38 16.2161 830.38 14.4557ZM812.125 14.1388C812.125 12.2742 813.089 11.6437 814.364 11.6437C815.587 11.6437 816.473 12.4576 816.473 14.0856V20.6267H820.091V13.2988C820.091 9.80624 818.372 8.09797 815.638 8.09797C814.207 8.09797 812.775 8.91195 812.124 10.147V8.36278H808.508V20.6267H812.125V14.1388ZM801.16 20.8373C797.724 20.8373 794.858 18.3161 794.858 14.4546C794.858 10.5909 797.721 8.09471 801.16 8.09471C804.6 8.09471 807.488 10.5909 807.488 14.4546C807.488 18.3183 804.596 20.8384 801.16 20.8384V20.8373ZM801.16 17.2666C802.669 17.2666 803.92 16.1618 803.92 14.4557C803.92 12.8006 802.67 11.6708 801.16 11.6708C800.426 11.6593 799.719 11.9501 799.205 12.475C798.688 13.0026 798.407 13.7173 798.426 14.4557C798.428 16.164 799.677 17.2666 801.16 17.2666ZM788.371 11.6447C789.438 11.6447 790.376 12.4859 790.376 14.0867V20.6289H793.968V13.6634C793.968 9.96035 792.167 8.0958 789.282 8.0958C788.424 8.0958 786.809 8.35627 785.637 10.2751C784.96 8.8566 783.659 8.12076 781.736 8.12076C780.372 8.11382 779.13 8.90491 778.56 10.1438V8.36387H774.939V20.6278H778.557V14.1388C778.557 12.2742 779.573 11.6437 780.665 11.6437C781.707 11.6437 782.643 12.4576 782.67 14.0075V20.6278H786.288V14.1388C786.288 12.3556 787.226 11.6458 788.371 11.6458V11.6447Z" fill="#333333"/>
<path d="M958.268 15.1632L958.286 15.1647L960.182 15.3628C960.315 15.3772 960.437 15.4421 960.523 15.5437L960.537 15.5609L960.519 15.5699C960.608 15.6817 960.647 15.8248 960.627 15.9661C960.213 19.2589 958.652 22.3006 956.219 24.5573C953.694 26.899 950.378 28.2 946.935 28.2C945.262 28.2027 943.604 27.8948 942.044 27.2921L941.959 27.2589C941.831 27.2117 941.729 27.1147 941.675 26.9906L941.666 26.9708C941.613 26.8472 941.61 26.7082 941.658 26.5829L942.406 24.7574C942.507 24.4993 942.795 24.3693 943.054 24.4608L943.071 24.4672C946.896 25.944 951.228 25.1123 954.234 22.324C956.147 20.566 957.38 18.191 957.719 15.6149C957.754 15.3489 957.985 15.1554 958.25 15.1624L958.268 15.1632ZM1003.04 7.41555C1004.65 7.41555 1005.92 7.90872 1006.73 8.85583L1006.75 8.88793V8.08644C1006.76 7.86273 1006.94 7.68193 1007.16 7.66009L1007.18 7.65867H1009.33C1009.55 7.67401 1009.73 7.84867 1009.75 8.06852L1009.75 8.08644V20.0591C1009.82 21.7474 1009.3 23.4074 1008.28 24.7555C1007.12 26.1693 1005.36 26.8852 1003.04 26.8852C999.814 26.8852 997.27 24.8455 996.852 21.9322C996.831 21.7219 996.959 21.5263 997.158 21.4604L997.176 21.4549L999.283 20.9596C999.294 20.9572 999.305 20.9551 999.316 20.9535C999.547 20.9196 999.762 21.0796 999.796 21.3109C999.989 22.945 1001.39 24.1642 1003.04 24.125C1005.53 24.125 1006.7 22.8585 1006.73 20.2118L1006.73 20.1311V19.082C1005.79 20.1297 1004.44 20.7086 1003.04 20.6625C999.454 20.6625 996.856 17.8798 996.856 14.0525C996.823 12.3305 997.43 10.6573 998.558 9.35617C999.704 8.09695 1001.34 7.3903 1003.04 7.41555ZM938.128 21.9772L938.155 21.977L938.181 21.9772C939.042 21.9871 939.734 22.6827 939.744 23.5399L939.744 23.5667C939.744 23.5756 939.744 23.5846 939.744 23.5935C939.729 24.4712 939.005 25.1706 938.127 25.1557C937.25 25.1408 936.55 24.4172 936.565 23.5395C936.58 22.6797 937.274 21.9909 938.128 21.9772ZM1040.37 7.24896L1040.48 7.24978C1044.34 7.30299 1046.72 9.98493 1046.72 14.2776C1046.72 14.5047 1046.71 14.7317 1046.69 14.9575C1046.67 15.1652 1046.5 15.3254 1046.29 15.3352L1046.27 15.3357H1037.11C1037.17 17.2593 1038.76 18.7812 1040.69 18.7533C1042.18 18.847 1043.54 17.8986 1043.96 16.466C1044.04 16.2603 1044.26 16.1497 1044.47 16.2087L1044.49 16.2138L1046.32 16.8577C1046.42 16.8902 1046.5 16.9618 1046.55 17.0559L1046.56 17.0738C1046.61 17.173 1046.62 17.2882 1046.58 17.3935C1045.73 19.9075 1043.34 21.571 1040.69 21.491C1038.95 21.5083 1037.27 20.8289 1036.04 19.6043C1034.69 18.1867 1033.97 16.286 1034.04 14.3317C1034.04 9.9409 1037.2 7.3021 1040.28 7.24976L1040.37 7.24896ZM988.549 7.24897H988.553C992.475 7.24897 994.911 9.94157 994.911 14.2776C994.911 14.5047 994.899 14.7317 994.875 14.9575C994.857 15.1664 994.686 15.3277 994.478 15.3354L994.461 15.3357H985.302C985.359 17.2646 986.957 18.7887 988.886 18.7534C990.379 18.8487 991.739 17.8997 992.164 16.466C992.241 16.2587 992.464 16.1473 992.674 16.2085L992.691 16.2138L994.519 16.8577C994.626 16.8922 994.713 16.9709 994.758 17.0738C994.801 17.1761 994.801 17.2912 994.758 17.3935C993.909 19.9059 991.519 21.569 988.868 21.491C987.126 21.5107 985.449 20.8311 984.212 19.6043C982.867 18.1856 982.148 16.2857 982.218 14.3317C982.218 9.89654 985.437 7.24897 988.549 7.24897ZM974.68 7.24441C976.441 7.24441 977.864 7.67219 978.917 8.51414C979.63 9.08193 980.158 9.84812 980.435 10.716L980.436 10.7195C980.472 10.8691 980.384 11.0198 980.238 11.0632L980.223 11.0672L978.039 11.7877C977.942 11.826 977.834 11.826 977.738 11.7877C977.655 11.749 977.593 11.6769 977.566 11.5896L977.555 11.5466C977.356 10.8355 976.706 9.69389 974.68 9.69389C973.239 9.69389 972.375 10.5224 972.375 11.3239L972.375 11.3556C972.386 11.8768 972.669 12.531 973.912 12.7797L973.951 12.7872L976.355 13.2375C979.012 13.7725 980.543 15.2164 980.574 17.2288L980.574 17.2899L980.565 17.254L980.565 17.315C980.526 19.3323 978.575 21.4549 974.982 21.4549C970.772 21.4549 969.119 19.073 968.813 17.6682C968.793 17.5212 968.883 17.3824 969.023 17.3392L969.038 17.335L971.29 16.6326C971.33 16.626 971.371 16.626 971.411 16.6326C971.469 16.6315 971.525 16.6437 971.577 16.6679L971.596 16.6776C971.679 16.7172 971.74 16.7914 971.762 16.8802C972.046 18.2311 973.266 19.037 975.022 19.037C976.657 19.037 977.4 18.1815 977.4 17.407C977.4 16.6411 976.752 16.0733 975.636 15.8388L975.599 15.8311L973.073 15.3403C970.718 14.8945 969.25 13.4311 969.25 11.5265C969.25 9.20758 971.74 7.24441 974.68 7.24441ZM1065.49 3.4937H1067.46C1067.69 3.50764 1067.87 3.69594 1067.88 3.92657L1067.88 3.94394V7.64068H1070.25C1070.48 7.65687 1070.66 7.84434 1070.67 8.07324L1070.67 8.09092V10.0541L1070.67 10.0712C1070.66 10.2913 1070.49 10.4701 1070.27 10.4813L1070.25 10.4819H1067.88V17.0513C1067.88 18.1409 1068.31 18.5912 1069.43 18.5912C1069.65 18.5873 1069.88 18.5702 1070.1 18.5401L1070.18 18.5282C1070.31 18.5074 1070.43 18.5421 1070.52 18.6228C1070.61 18.7016 1070.66 18.81 1070.67 18.9253L1070.67 18.947V20.7975C1070.67 20.9861 1070.55 21.1532 1070.37 21.2073C1069.85 21.3525 1069.31 21.4253 1068.77 21.4241L1068.7 21.4234C1066.35 21.4234 1064.89 19.9273 1064.86 17.5077L1064.86 17.434V10.5089H1062.81C1062.58 10.4957 1062.4 10.3205 1062.39 10.0992L1062.38 10.0811V8.10892C1062.38 7.87625 1062.56 7.68262 1062.79 7.66004L1062.81 7.65867L1063.36 7.6586L1063.42 7.65756C1064.06 7.63909 1065.05 7.3785 1065.07 5.9433L1065.07 5.89808V3.94394C1065.07 3.71128 1065.24 3.51764 1065.47 3.49507L1065.49 3.4937ZM1027.25 7.24697L1027.3 7.24897H1027.29C1029.61 7.24897 1031.95 8.8641 1032 12.3915L1032 12.499V20.8381C1031.99 21.0618 1031.82 21.2425 1031.59 21.2644L1031.58 21.2659H1029.42C1029.2 21.2526 1029.02 21.0774 1029 20.8561L1029 20.8381V12.7692L1029 12.7071C1028.98 11.679 1028.63 10.0271 1026.52 10.0271C1024.95 10.0271 1023.84 11.2451 1023.81 13.017L1023.81 13.0709V20.8381C1023.8 21.0618 1023.63 21.2425 1023.41 21.2644L1023.39 21.2659H1021.21C1020.98 21.2526 1020.8 21.0774 1020.78 20.8561L1020.78 20.8381V12.7692L1020.78 12.7071C1020.77 11.679 1020.42 10.0271 1018.3 10.0271C1016.68 10.0271 1015.57 11.2362 1015.55 13.043L1015.55 13.0979V20.8381C1015.54 21.0618 1015.37 21.2425 1015.15 21.2644L1015.13 21.2659H1012.97C1012.75 21.2505 1012.57 21.0758 1012.55 20.856L1012.55 20.8381V8.05941C1012.56 7.83728 1012.73 7.6571 1012.95 7.63323L1012.97 7.63164H1015.05C1015.27 7.6448 1015.45 7.82007 1015.47 8.04137L1015.47 8.05941V8.82939C1016.4 7.80564 1017.73 7.23044 1019.12 7.24897C1020.72 7.20194 1022.22 8.05038 1023 9.4507C1023.94 8.02432 1025.55 7.18985 1027.25 7.24697ZM1059.54 8.83835C1060.37 9.92693 1060.8 11.2658 1060.75 12.6305L1060.75 12.6882V20.8381C1060.74 21.0602 1060.57 21.2404 1060.35 21.2643L1060.33 21.2659H1058.15C1057.92 21.2526 1057.74 21.0774 1057.72 20.8561L1057.72 20.8381V13.125C1057.72 11.1077 1056.77 10.0811 1054.97 10.0811C1054.18 10.0554 1053.42 10.4098 1052.92 11.0357C1052.45 11.7227 1052.2 12.5426 1052.22 13.3775L1052.22 13.4266V20.8381C1052.21 21.0618 1052.04 21.2425 1051.82 21.2644L1051.8 21.2659H1049.62C1049.4 21.2526 1049.22 21.0774 1049.2 20.8561L1049.2 20.8381V8.05038C1049.21 7.82667 1049.38 7.64594 1049.6 7.62403L1049.62 7.62261H1051.75C1051.97 7.63795 1052.15 7.81268 1052.17 8.03246L1052.17 8.05038V8.95095C1053.08 7.8441 1054.45 7.21692 1055.89 7.24897C1057.28 7.1892 1058.63 7.77529 1059.54 8.83835ZM934.043 15.7095H949.546C949.831 15.7119 950.061 15.94 950.068 16.2227L950.069 16.2409V18.1815C950.071 18.4664 949.847 18.7004 949.564 18.7123L949.546 18.7128H934.043C933.758 18.7104 933.528 18.4822 933.521 18.1996V18.1815V16.2408V16.2227C933.528 15.9462 933.749 15.7219 934.025 15.71L934.043 15.7095ZM1003.41 10.1082C1001.29 10.1082 999.936 11.6211 999.936 14.0525C999.936 16.484 1001.27 17.9923 1003.41 17.9923C1005.46 17.9923 1006.83 16.4074 1006.83 14.0525C1006.83 11.6931 1005.46 10.1082 1003.41 10.1082ZM985.398 12.7389L985.392 12.7872H991.8C991.644 11.0755 990.437 10.0081 988.631 9.98692L988.576 9.98659C986.984 9.96071 985.628 11.1251 985.404 12.6913L985.398 12.7389ZM1037.23 12.7389L1037.22 12.7872H1043.63C1043.47 11.0755 1042.27 10.0081 1040.46 9.98692L1040.41 9.98659C1038.81 9.96071 1037.46 11.1251 1037.23 12.6913L1037.23 12.7389ZM951.487 0.900106C951.621 0.948529 951.73 1.04924 951.789 1.17929C951.842 1.31058 951.842 1.45778 951.789 1.58899L951.113 3.39013C951.02 3.65719 950.728 3.79813 950.46 3.70531C946.922 2.47056 942.996 3.17211 940.104 5.55587C938.302 7.06432 937.022 9.10355 936.448 11.3824C936.388 11.6125 936.181 11.7734 935.944 11.7741H935.826L933.971 11.3284C933.833 11.2959 933.714 11.2079 933.643 11.0852H933.634C933.559 10.9625 933.537 10.8143 933.575 10.6755C934.312 7.75837 935.96 5.1525 938.28 3.23699C941.97 0.199637 946.979 -0.686801 951.487 0.900106ZM944.62 8.6808H960.123C960.401 8.68307 960.628 8.90041 960.645 9.17564L960.645 9.19407V11.1348C960.648 11.4197 960.424 11.6537 960.141 11.6656L960.123 11.6661H944.62C944.337 11.6613 944.11 11.434 944.103 11.1532L944.102 11.1348V9.21206C944.1 8.92899 944.321 8.69586 944.602 8.68143L944.62 8.6808ZM955.382 2.75969L955.409 2.75948L955.436 2.75971C956.296 2.76957 956.989 3.46523 956.998 4.32233L956.998 4.34917C956.998 4.35812 956.998 4.36708 956.998 4.37596C956.983 5.25367 956.259 5.95306 955.382 5.93816C954.504 5.92325 953.805 5.19961 953.819 4.32198C953.834 3.46211 954.529 2.77343 955.382 2.75969Z" fill="#4FB58B"/>
</svg>
