<svg width="17" height="17" viewBox="0 0 17 17" fill="none" xmlns="http://www.w3.org/2000/svg">
<path d="M16.25 8.39062C16.25 12.6719 12.7813 16.1406 8.50003 16.1406C4.21878 16.1406 0.750028 12.6719 0.750028 8.39062C0.750028 4.10938 4.21878 0.640625 8.50003 0.640625C12.7813 0.640625 16.25 4.10938 16.25 8.39062ZM2.25003 8.39062C2.25003 11.8594 5.03128 14.6406 8.50003 14.6406C11.9375 14.6406 14.75 11.8594 14.75 8.39062C14.75 4.95312 11.9375 2.14062 8.50003 2.14062C5.03128 2.14062 2.25003 4.95312 2.25003 8.39062ZM4.50003 9.01562V7.76562C4.50003 7.57812 4.65628 7.39062 4.87503 7.39062H8.50003V5.29688C8.50003 4.98438 8.87503 4.79688 9.12503 5.04688L12.2188 8.14062C12.375 8.29688 12.375 8.51562 12.2188 8.67188L9.12503 11.7656C8.87503 12.0156 8.50003 11.8281 8.50003 11.4844V9.39062H4.87503C4.65628 9.39062 4.50003 9.23438 4.50003 9.01562Z" fill="#001038"/>
</svg>
